# xmcd
#
# Track frame offsets:
#	150
#	12310
#	23980
#	35980
#	46435
#	58070
#	70960
#	81485
#	94360
#	110680
#	128110
#	141460
#	155005
#	167895
#	179620
#	191072
#
# Disc length: 2713 seconds
#
# Revision: 1
# Processed by: cddbd v1.5.2PL0 Copyright (c) Steve Scherf et al.
# Submitted via: VUPlayer 2.49
#
DISCID=fb0a9710
DTITLE=Sam and Dave - Sweet Soul Music
DYEAR=1988
DGENRE=R&B
TTITLE0=I Thank You
TTITLE1=Soul Man
TTITLE2=Hold On I'm Coming
TTITLE3=Soul Sister Brown Sugar
TTITLE4=Funky Street
TTITLE5=Funky Broadway
TTITLE6=Sweet Soul Music
TTITLE7=634-5789
TTITLE8=Love the One You're with
TTITLE9=Mustang Sally
TTITLE10=How Sweet it is =To Be Loved By You=
TTITLE11=Good Lovin'
TTITLE12=I'll Be Doggone
TTITLE13=Respect
TTITLE14=Land of 1000 Dances
TTITLE15=Satisfaction
EXTD=
EXTT0=
EXTT1=
EXTT2=
EXTT3=
EXTT4=
EXTT5=
EXTT6=
EXTT7=
EXTT8=
EXTT9=
EXTT10=
EXTT11=
EXTT12=
EXTT13=
EXTT14=
EXTT15=
PLAYORDER=
